<svg xmlns="http://www.w3.org/2000/svg" xmlns:xlink="http://www.w3.org/1999/xlink" id="Layer_1" data-name="Layer 1" viewBox="0 0 46.88 46.88" width="47"  height="47" ><defs><style>.cls-1{fill:none;}.cls-2{clip-path:url(#clip-path);}.cls-3{fill:#2b0400;}.cls-4{clip-path:url(#clip-path-2);}.cls-5{clip-path:url(#clip-path-3);}.cls-6{clip-path:url(#clip-path-4);}.cls-7{clip-path:url(#clip-path-5);}.cls-8{clip-path:url(#clip-path-6);}.cls-9{clip-path:url(#clip-path-7);}.cls-10{clip-path:url(#clip-path-8);}.cls-11{clip-path:url(#clip-path-9);}.cls-12{clip-path:url(#clip-path-10);}</style><clipPath id="clip-path"><path class="cls-1" d="M23.44,4.7c0-2.13-1.73-4.7-3.86-4.7a3.86,3.86,0,0,0-3.87,3.86c0,3.55,7.73,9.13,7.73,13.24,0-4.07,7.72-9.69,7.72-13.24A3.86,3.86,0,0,0,27.3,0c-2.13,0-3.86,2.57-3.86,4.7"/></clipPath><clipPath id="clip-path-2"><path class="cls-1" d="M9.6,4.13c-1.51,1.51-.92,4.55.59,6.06C8.68,8.68,5.64,8.09,4.13,9.6a3.87,3.87,0,0,0,0,5.46c2.51,2.51,11.92,1,14.83,3.9-2.88-2.88-1.39-12.32-3.9-14.83a3.86,3.86,0,0,0-5.46,0"/></clipPath><clipPath id="clip-path-3"><path class="cls-1" d="M0,19.58c0,2.13,2.57,3.86,4.7,3.86C2.57,23.44,0,25.17,0,27.3a3.86,3.86,0,0,0,3.86,3.86c3.55,0,9.13-7.72,13.24-7.72-4.07,0-9.69-7.73-13.24-7.73A3.86,3.86,0,0,0,0,19.58"/></clipPath><clipPath id="clip-path-4"><path class="cls-1" d="M4.13,31.82a3.87,3.87,0,0,0,0,5.46c1.51,1.51,4.55.92,6.06-.59-1.51,1.51-2.1,4.55-.59,6.05a3.86,3.86,0,0,0,5.46,0c2.51-2.5,1-11.91,3.9-14.82-2.89,2.88-12.32,1.39-14.83,3.9"/></clipPath><clipPath id="clip-path-5"><path class="cls-1" d="M15.71,43a3.87,3.87,0,0,0,3.87,3.86c2.13,0,3.86-2.57,3.86-4.7,0,2.13,1.73,4.7,3.86,4.7A3.86,3.86,0,0,0,31.16,43c0-3.55-7.72-9.13-7.72-13.24,0,4.07-7.73,9.69-7.73,13.24"/></clipPath><clipPath id="clip-path-6"><path class="cls-1" d="M31.82,42.74a3.86,3.86,0,0,0,5.46,0c1.51-1.5.92-4.54-.59-6.05,1.51,1.51,4.55,2.1,6.05.59a3.86,3.86,0,0,0,0-5.46c-2.5-2.51-11.91-1-14.82-3.9,2.88,2.88,1.39,12.32,3.9,14.82"/></clipPath><clipPath id="clip-path-7"><rect class="cls-1" x="29.78" y="15.71" width="17.1" height="15.45"/></clipPath><clipPath id="clip-path-8"><rect class="cls-1" x="29" y="15" width="18" height="17"/></clipPath><clipPath id="clip-path-9"><path class="cls-1" d="M29.77,23.44c4.08,0,9.7,7.72,13.24,7.72a3.86,3.86,0,0,0,3.87-3.86c0-2.13-2.57-3.86-4.71-3.86,2.14,0,4.71-1.73,4.71-3.86A3.87,3.87,0,0,0,43,15.71c-3.54,0-9.12,7.73-13.24,7.73"/></clipPath><clipPath id="clip-path-10"><path class="cls-1" d="M31.82,4.13c-2.51,2.51-1,11.92-3.9,14.83,2.88-2.88,12.32-1.39,14.82-3.9a3.86,3.86,0,0,0,0-5.46c-1.5-1.51-4.54-.92-6.05.59,1.51-1.51,2.1-4.55.59-6.06a3.86,3.86,0,0,0-5.46,0"/></clipPath></defs><title>Untitled-3</title><g class="cls-2"><rect class="cls-3" x="10.71" y="-5" width="25.45" height="27.1"/></g><g class="cls-4"><rect class="cls-3" x="-2" y="-2" width="25.96" height="25.96"/></g><g class="cls-5"><rect class="cls-3" x="-5" y="10.71" width="27.1" height="25.45"/></g><g class="cls-6"><rect class="cls-3" x="-2" y="22.92" width="25.96" height="25.96"/></g><g class="cls-7"><rect class="cls-3" x="10.71" y="24.78" width="25.45" height="27.1"/></g><g class="cls-8"><rect class="cls-3" x="22.92" y="22.92" width="25.96" height="25.96"/></g><g class="cls-9"><g class="cls-10"><g class="cls-11"><rect class="cls-3" x="24.78" y="10.71" width="27.1" height="25.45"/></g></g></g><g class="cls-12"><rect class="cls-3" x="22.92" y="-2" width="25.96" height="25.96"/></g></svg>